<?xml version="1.0" encoding="UTF-8" standalone="no"?><svg xmlns="http://www.w3.org/2000/svg" xmlns:xlink="http://www.w3.org/1999/xlink" fill="#000000" height="100.5" preserveAspectRatio="xMidYMid meet" version="1" viewBox="11.7 -0.3 75.3 100.5" width="75.3" zoomAndPan="magnify"><g id="change1_1"><path d="M 81.199219 6.445312 C 79.707031 5.347656 78.015625 6.257812 76.503906 7.320312 C 71.355469 10.953125 67.925781 19.367188 53.496094 47.550781 C 53.414062 47.714844 53.4375 47.933594 53.414062 48.109375 C 53.800781 48.617188 54.113281 49.160156 55.011719 49.042969 C 59.648438 42.050781 70.742188 9.867188 80.5 6.9375 C 80.726562 6.867188 80.90625 6.65625 81.199219 6.445312 Z M 42.351562 45.253906 C 35.59375 36.621094 21.402344 18.054688 15.3125 9 C 13.277344 5.976562 11.71875 1.742188 15.210938 2.839844 C 17.292969 3.492188 17.203125 5.28125 21.941406 11.203125 C 30.433594 21.816406 42.039062 36.804688 45.429688 39.78125 C 55.707031 22.332031 53.097656 26.550781 56.007812 21.589844 C 57.164062 19.617188 59.0625 17.003906 60.847656 13.742188 C 62.375 10.957031 64.273438 8.421875 66.265625 5.988281 C 68.042969 3.816406 70.097656 1.820312 72.867188 0.871094 C 74.515625 0.308594 76.195312 -0.25 77.988281 0.117188 C 80.011719 0.535156 81.828125 1.246094 82.949219 3.1875 C 83.800781 4.671875 83.65625 4.914062 83.65625 7.183594 C 84.078125 7.773438 84.449219 8.292969 85.054688 9.148438 C 82.371094 8.234375 81.21875 7.511719 79.457031 8.90625 C 77.984375 10.066406 76.53125 11.261719 75.554688 12.929688 C 66.460938 28.503906 64.515625 35.332031 56.710938 51.078125 C 58.042969 53.117188 74.484375 68.042969 80.613281 75.519531 C 82.375 77.667969 83.855469 79.96875 84.171875 82.855469 C 84.304688 84.039062 86.503906 85.75 86.84375 87.714844 C 87.058594 88.96875 84.941406 89.34375 84.628906 88.1875 C 84.28125 86.894531 85.210938 85.984375 83.457031 85.242188 C 82.894531 85.457031 82.277344 85.691406 81.589844 85.953125 C 81.167969 85.6875 80.738281 85.417969 80.308594 85.148438 C 80.378906 84.894531 80.449219 84.644531 80.542969 84.296875 C 79.84375 84.394531 79.210938 84.480469 78.476562 84.585938 C 78.664062 84.132812 78.78125 83.84375 78.933594 83.476562 C 76.109375 83.136719 76.917969 83.367188 76.132812 82.394531 C 76.359375 82.054688 76.570312 81.734375 76.878906 81.273438 C 76.558594 81.167969 76.289062 81.078125 75.972656 80.976562 C 75.984375 80.707031 76.070312 80.171875 76 80.152344 C 75.21875 79.914062 75 79.296875 74.617188 78.652344 C 74.007812 77.613281 54.238281 58.484375 53.445312 57.84375 C 52.023438 60.171875 50.652344 62.378906 49.65625 64.800781 C 49.246094 65.800781 42.261719 78.003906 41.421875 79.527344 C 39.128906 83.683594 38.046875 87.398438 30.097656 99.183594 C 29.398438 100.226562 28.933594 100.261719 28.058594 99.347656 C 27.921875 99.207031 27.847656 99.011719 27.664062 98.703125 C 30.386719 94.828125 28.117188 98.214844 33.828125 88.664062 C 34.273438 87.917969 34.800781 87.222656 35.226562 86.46875 C 35.621094 85.773438 35.886719 85.003906 36.273438 84.300781 C 48.253906 62.601562 45.402344 66.492188 48.007812 63.421875 C 47.960938 61.859375 48.820312 61.414062 50.929688 56.957031 C 51.558594 55.632812 51.53125 55.621094 50.257812 54.289062 C 49.554688 55.21875 30.1875 91.746094 26.472656 97.066406 C 25.550781 98.386719 25.285156 98.492188 23.9375 97.53125 C 23.382812 97.132812 23.078125 97.640625 22.53125 97.550781 C 22.472656 97.375 22.398438 97.144531 22.296875 96.847656 C 22.164062 96.832031 21.976562 96.765625 21.804688 96.789062 C 21.015625 96.910156 20.542969 96.605469 20.285156 95.832031 C 19.707031 94.113281 19.003906 94.164062 18.710938 93.667969 C 18.480469 93.273438 18.40625 92.789062 18.238281 92.25 C 19.675781 89.347656 21.003906 86.339844 22.710938 83.511719 C 23.800781 81.699219 25.308594 78.21875 26.121094 76.699219 C 26.753906 75.523438 27.511719 74.429688 27.96875 73.15625 C 28.359375 72.074219 29.726562 70.417969 30.082031 69.503906 C 30.980469 67.175781 32.296875 65.066406 33.460938 62.871094 C 34.621094 60.679688 35.671875 58.429688 36.804688 56.21875 C 37.414062 55.03125 39.03125 52.539062 39.71875 50.722656 C 40.425781 48.851562 41.800781 47.296875 42.351562 45.253906" fill="#0d3a5c"/></g></svg>